PathFileType	4	(X/Y/Z)	./resultDataOpenSim/trcMotMarkerGrf/sub06/qtm-02-05.trc
DataRate	CameraRate	NumFrames	NumMarkers	Units	OrigDataRate	OrigDataStartFrame	OrigNumFrames
250.000000	250.000000	8	24	m	250.000000	424	484
Frame#	Time	L.Toe.Tip			R.Toe.Tip			L.Ankle.Lat			R.Ankle.Lat			L.Ankle.Med			R.Ankle.Med			L.Heel			R.Heel			L.Knee.Lat			R.Knee.Lat			L.Knee.Med			R.Knee.Med			L.Thigh.Upper			R.Thigh.Upper			L.ASIS			R.ASIS			V.Sacral			L.Acromium			R.Acromium			C7			L.Elbow			R.Elbow			L.Wrist.Lat			R.Wrist.Lat
		X1	Y1	Z1	X2	Y2	Z2	X3	Y3	Z3	X4	Y4	Z4	X5	Y5	Z5	X6	Y6	Z6	X7	Y7	Z7	X8	Y8	Z8	X9	Y9	Z9	X10	Y10	Z10	X11	Y11	Z11	X12	Y12	Z12	X13	Y13	Z13	X14	Y14	Z14	X15	Y15	Z15	X16	Y16	Z16	X17	Y17	Z17	X18	Y18	Z18	X19	Y19	Z19	X20	Y20	Z20	X21	Y21	Z21	X22	Y22	Z22	X23	Y23	Z23	X24	Y24	Z24

424	1.692	1.6259264	0.03387257	-0.038271013	1.0904602	0.084299174	0.11545576	1.5012028	0.067297536	-0.062817562	1.0834603	0.2244157	0.14502467	1.4993503	0.080535138	0.022970229	1.1268806	0.21362183	0.066907118	1.4254914	0.039702079	-0.022347266	1.060301	0.26721265	0.079328242	1.5509748	0.43989881	-0.077372558	1.4177367	0.40473345	0.19654542	1.5195948	0.43496477	0.039617763	1.4233838	0.38462954	0.061565426	1.4371583	0.82025599	-0.14603742	1.3453823	0.76968088	0.18941179	1.4932211	0.85980647	-0.087695902	1.4613291	0.83387861	0.1557594	1.2871708	0.91255536	0.022358835	1.3839704	1.3147295	-0.1711502	1.3717541	1.3236307	0.19202673	1.3002217	1.3547564	0.0051474349	1.3093358	1.0082373	-0.21285639	1.3419433	1.0012557	0.25954443	1.4161764	0.79300356	-0.26033325	1.5451625	0.86263244	0.26148214
425	1.696	1.6258855	0.033892596	-0.038303468	1.1076371	0.084813017	0.11648277	1.501124	0.067301168	-0.062795582	1.0969649	0.2248443	0.14515923	1.5003912	0.08077752	0.02273228	1.1407265	0.2147369	0.067111132	1.4254138	0.039755179	-0.02231803	1.073136	0.26674236	0.079102709	1.5525897	0.43974427	-0.077232869	1.4299066	0.407238	0.1971082	1.5208488	0.43504301	0.039706333	1.4361457	0.38704376	0.062052325	1.4422515	0.82120522	-0.14609951	1.351881	0.77146585	0.18933684	1.4988422	0.8609444	-0.087963335	1.4677828	0.8357809	0.15599925	1.2929752	0.91429173	0.022164052	1.3903312	1.3165328	-0.1710254	1.3772459	1.3253925	0.19210409	1.3062112	1.3563316	0.0050594978	1.317896	1.009219	-0.21311197	1.3457027	1.0031805	0.25895054	1.4276772	0.79516745	-0.25947501	1.5470233	0.86174317	0.26192663
426	1.7	1.6258513	0.033907114	-0.038336788	1.125008	0.08519198	0.11750585	1.5010593	0.067321159	-0.062804615	1.1104966	0.22492503	0.14530835	1.5009919	0.08093427	0.022586154	1.1546934	0.21550085	0.06727866	1.4253592	0.039815528	-0.022272819	1.0861031	0.26599874	0.078950592	1.5541625	0.43961889	-0.077057281	1.4419712	0.40988954	0.19762473	1.5219017	0.43514067	0.03978969	1.44891	0.38950092	0.062506539	1.447289	0.82208259	-0.14617509	1.3603322	0.77278461	0.18879114	1.5044181	0.86206065	-0.088234236	1.4740863	0.83772248	0.15617276	1.2987434	0.91600174	0.022024535	1.3966495	1.3183535	-0.17087773	1.3827949	1.3271311	0.19216728	1.3121947	1.3579054	0.0050133459	1.3264601	1.0102254	-0.21338158	1.3492771	1.0051352	0.25845833	1.4392018	0.79741217	-0.25858815	1.548828	0.86093244	0.26238732
427	1.704	1.6258203	0.03392089	-0.038371683	1.1426281	0.085463355	0.1185123	1.5010042	0.067354289	-0.062831357	1.1242479	0.22471634	0.14545703	1.5011893	0.081035283	0.022528086	1.1687916	0.21592143	0.06743817	1.4253145	0.039887225	-0.022258555	1.0991252	0.26499508	0.078893244	1.5557023	0.43950461	-0.076859927	1.4539464	0.41265631	0.19807752	1.5225903	0.43522128	0.039832023	1.4614578	0.3920099	0.062932503	1.4523771	0.82289021	-0.14629559	1.3697014	0.77391494	0.18804257	1.5099113	0.86316507	-0.088491713	1.4800263	0.83971257	0.15622471	1.3045148	0.9176422	0.021934541	1.4029258	1.320186	-0.17071394	1.388408	1.3288376	0.19221531	1.3181831	1.3594813	0.0050017751	1.3350203	1.0112507	-0.21367537	1.3528518	1.0071051	0.25801915	1.450743	0.79973294	-0.25767532	1.5505651	0.86020437	0.26286308
428	1.708	1.6257925	0.033937974	-0.038405485	1.1605331	0.08564571	0.11950037	1.5009513	0.067411754	-0.062902875	1.138274	0.22425844	0.14559403	1.5012283	0.081129523	0.02250745	1.1830321	0.21603288	0.067629018	1.425264	0.03996016	-0.022294363	1.1122372	0.26372269	0.078891802	1.5572094	0.43938782	-0.076651394	1.4658198	0.4155147	0.19845608	1.5230062	0.43528273	0.039845742	1.4737513	0.39455473	0.063309794	1.4574657	0.82363294	-0.14642444	1.3792356	0.77505534	0.18728794	1.5153333	0.86426615	-0.088733809	1.4855864	0.84174455	0.15614678	1.3103573	0.91922899	0.021854957	1.4091598	1.3220266	-0.170536	1.3940748	1.3305115	0.19225393	1.3241823	1.3610621	0.0050123368	1.3435762	1.0122954	-0.21397513	1.3564257	1.009094	0.25758694	1.4622918	0.80212392	-0.25673411	1.552219	0.8595506	0.26335971
429	1.712	1.6257718	0.033958958	-0.038434684	1.1786266	0.085710443	0.12051781	1.5008956	0.067504298	-0.06304969	1.152483	0.22355933	0.14571589	1.5012549	0.081245161	0.022494041	1.1974423	0.21585394	0.067913105	1.4252039	0.040024868	-0.022369584	1.1254721	0.26216346	0.078917599	1.5586706	0.4392659	-0.076434447	1.4775727	0.41845026	0.19876276	1.5235526	0.43536234	0.039896946	1.4859195	0.39711404	0.063621673	1.4624881	0.82430993	-0.14651882	1.3884731	0.77632005	0.18667197	1.520783	0.8653728	-0.088990427	1.4910028	0.84379259	0.1559909	1.3163257	0.92080335	0.021739708	1.4153562	1.323872	-0.17034646	1.3997813	1.3321566	0.19228855	1.3301901	1.3626386	0.00503423	1.3521335	1.013362	-0.21425255	1.3598817	1.0110967	0.25714302	1.4738427	0.8045811	-0.25575806	1.5537928	0.8589583	0.26388573
430	1.716	1.625764	0.033981432	-0.038458729	1.1967321	0.085597599	0.12164141	1.5008416	0.067624374	-0.063241906	1.166813	0.22263134	0.1458243	1.5013114	0.081387404	0.022480092	1.2120763	0.21538091	0.068382464	1.42515	0.040088878	-0.022426848	1.1388093	0.26029767	0.078975502	1.5600745	0.43914307	-0.076208695	1.4892122	0.42144604	0.19900859	1.5245949	0.43549003	0.040041014	1.4980979	0.39970271	0.063886281	1.4674206	0.82492297	-0.14655859	1.3974421	0.77772188	0.18626633	1.5264079	0.86649115	-0.089303687	1.4966536	0.84581852	0.15584679	1.3224309	0.92237848	0.021587156	1.4215277	1.3257232	-0.17015282	1.4055169	1.3337734	0.19231849	1.3361993	1.3641917	0.0050636179	1.3606926	1.0144491	-0.21450415	1.3632551	1.0130991	0.25671145	1.4853958	0.8071026	-0.25474777	1.5553092	0.85842298	0.26444091
431	1.72	1.6257697	0.034000889	-0.038479984	1.21477	0.085283087	0.12290993	1.5008029	0.067750786	-0.063395996	1.1813458	0.22149238	0.14593502	1.501388	0.081545788	0.022468003	1.2269599	0.21462691	0.069069876	1.4251233	0.04016998	-0.022412302	1.1522338	0.25810874	0.079047397	1.5614172	0.43902276	-0.075978824	1.5007642	0.42447881	0.19920928	1.5260992	0.43564971	0.040267228	1.5103317	0.40238197	0.06413518	1.4722612	0.82548803	-0.14653338	1.4067001	0.7791669	0.18607395	1.53226	0.8676163	-0.089681146	1.5027225	0.84779975	0.15576183	1.3286395	0.92393295	0.021426457	1.427687	1.3275809	-0.16996008	1.4112684	1.3353545	0.19233941	1.3422059	1.365705	0.0051008413	1.3692473	1.0155484	-0.21474984	1.3668053	1.0151009	0.25634184	1.4969585	0.80968334	-0.25371335	1.5567865	0.85794375	0.26501833
